<svg width="24" height="24" viewBox="0 0 24 24" fill="none" xmlns="http://www.w3.org/2000/svg">
<path fill-rule="evenodd" clip-rule="evenodd" d="M5.96521 15.1697C5.41311 15.3176 5.13706 15.3916 5.04741 15.6344C4.95775 15.8771 5.10644 16.0938 5.40381 16.5271C5.72056 16.9887 6.08637 17.4179 6.49659 17.8067C7.61878 18.8703 9.02515 19.586 10.5455 19.867C12.0659 20.1481 13.6352 19.9826 15.0635 19.3905C16.4918 18.7984 17.7179 17.8051 18.5935 16.5307C19.4691 15.2564 19.9566 13.7556 19.9972 12.21C20.0377 10.6644 19.6294 9.1401 18.8218 7.82163C18.0142 6.50316 16.8418 5.44697 15.4465 4.78085C14.5554 4.35548 13.5979 4.10081 12.6229 4.02464C12.0989 3.98371 11.8369 3.96325 11.6715 4.16228C11.5061 4.36131 11.58 4.63737 11.728 5.18951L13.3711 11.3218L13.3737 11.3312C13.3861 11.3763 13.4278 11.528 13.4472 11.6787C13.4739 11.8861 13.4906 12.2936 13.2451 12.7187C12.9997 13.1439 12.6384 13.3333 12.4455 13.4138C12.3053 13.4723 12.153 13.5121 12.1078 13.5239L12.0983 13.5263L5.96521 15.1697Z" fill="#D1D1D1"/>
<path d="M9.67063 3.30667C9.54649 2.84338 9.48442 2.61174 9.28694 2.51053C9.08946 2.40932 8.87978 2.48868 8.46042 2.64739C7.54796 2.99272 6.68924 3.47037 5.91239 4.06647C4.87054 4.8659 3.99636 5.86272 3.33975 7C2.68314 8.13728 2.25696 9.39275 2.08555 10.6947C1.95774 11.6656 1.97344 12.6481 2.13061 13.6109C2.20284 14.0535 2.23896 14.2747 2.42535 14.3952C2.61174 14.5156 2.84338 14.4535 3.30667 14.3294L11.0341 12.2588C11.4894 12.1368 11.7171 12.0758 11.8206 11.8964C11.9242 11.7171 11.8632 11.4894 11.7412 11.0341L9.67063 3.30667Z" fill="#5E5F5F"/>
</svg>
